#!OML:ASF G:\ViconDB\ViconDB\414\test\team2\shane.ASF
:FULLY-SPECIFIED
:DEGREES
252
root 5.219 16.4995 4.78647 -6.56412 1.49332 -5.32416
lowerback 7.09901 -6.82835 -1.74695
upperback 4.14089 -9.26807 7.32345
thorax 1.91241 -4.87828 9.08695
lowerneck -14.4002 2.99221 -6.1045
upperneck 12.2506 4.84625 3.10894
head 5.83811 2.31576 2.4089
rclavicle -2.04748e-014 7.95139e-015
rhumerus -44.3267 4.16232 -79.4112
rradius 37.1468
rwrist 29.7172
rhand -29.723 -12.4594
rfingers 7.12502
rthumb -3.04995 -42.4174
lclavicle -2.04748e-014 7.95139e-015
lhumerus -18.1053 -23.4237 91.3597
lradius 40.6108
lwrist -17.1401
lhand -43.1622 5.24671
lfingers 7.12502
lthumb -16.0146 34.6048
rfemur -31.1199 -22.4447 27.1452
rtibia 38.9552
rfoot 4.22953 6.25515
rtoes -14.5779
lfemur 34.7058 0.692571 -11.6517
ltibia -2.22639e-014
lfoot -16.4324 -17.5606
ltoes -23.6972
253
root 5.20186 16.4205 4.98042 -6.47898 1.63018 -5.51989
lowerback 6.98187 -6.91629 -1.66708
upperback 4.06683 -9.3841 7.50002
thorax 1.93909 -4.93936 9.22353
lowerneck -14.3121 3.12883 -6.1277
upperneck 12.2449 5.05014 2.97339
head 5.81507 2.40282 2.38423
rclavicle -1.52269e-013 8.11041e-014
rhumerus -44.1822 3.63754 -78.9859
rradius 37.2008
rwrist 30.1126
rhand -29.6087 -12.4896
rfingers 7.12502
rthumb -2.93952 -42.4491
lclavicle -1.52269e-013 8.11041e-014
lhumerus -18.1479 -23.0435 91.4587
lradius 40.1633
lwrist -17.5542
lhand -43.2884 4.91279
lfingers 7.12502
lthumb -16.1361 34.2611
rfemur -30.629 -22.1277 27.2481
rtibia 39.7956
rfoot 3.16296 6.82878
rtoes -13.8337
lfemur 35.3917 0.286404 -11.5184
ltibia 1.90833e-014
lfoot -16.7659 -17.2928
ltoes -23.9788
254
root 5.17311 16.3542 5.15436 -6.18748 1.83116 -5.63607
lowerback 7.12958 -7.0165 -1.98246
upperback 3.79875 -9.52693 7.85111
thorax 1.72159 -5.02039 9.82531
lowerneck -14.0128 3.28548 -6.22535
upperneck 12.0314 5.3033 2.68478
head 5.69206 2.50242 2.31711
rclavicle 9.40251e-014 4.77083e-015
rhumerus -44.0565 3.88033 -78.7473
rradius 37.0114
rwrist 30.2535
rhand -30.4131 -12.5694
rfingers 7.12502
rthumb -3.71634 -42.5167
lclavicle 9.40251e-014 4.77083e-015
lhumerus -18.2431 -22.4636 91.7897
lradius 39.6786
lwrist -17.2752
lhand -43.339 4.73045
lfingers 7.12502
lthumb -16.1848 34.0748
rfemur -30.4203 -20.7876 27.2214
rtibia 40.6635
rfoot 0.221696 7.51754
rtoes -12.8902
lfemur 35.6878 -0.166166 -11.4186
ltibia 7.63333e-014
lfoot -16.7908 -16.977
ltoes -24.7736
255
root 5.15899 16.2829 5.357 -6.14638 1.98893 -5.38771
lowerback 6.97232 -7.00223 -2.12633
upperback 3.74414 -9.51716 7.81383
thorax 1.76581 -5.01725 9.84588
lowerneck -14.1104 3.27227 -6.14195
upperneck 12.2238 5.29891 2.53394
head 5.77637 2.48791 2.26259
rclavicle 4.79071e-014 -4.92986e-014
rhumerus -43.9213 3.27786 -78.5081
rradius 37.2879
rwrist 29.6046
rhand -30.1964 -12.7627
rfingers 7.12502
rthumb -3.50708 -42.7136
lclavicle 4.79071e-014 -4.92986e-014
lhumerus -18.389 -22.2518 92.0361
lradius 39.1481
lwrist -17.5212
lhand -43.0819 4.80366
lfingers 7.12502
lthumb -15.9372 34.168
rfemur -29.797 -20.1622 26.6854
rtibia 41.6034
rfoot -3.48345 7.98219
rtoes -14.4738
lfemur 36.4173 -0.515636 -11.7998
ltibia -1.59028e-014
lfoot -16.8601 -16.6742
ltoes -25.5699
256
root 5.14817 16.2241 5.59578 -6.03212 2.43367 -6.00339
lowerback 6.23527 -7.26287 -1.41352
upperback 3.71414 -9.85091 8.09544
thorax 2.13412 -5.18312 9.64709
lowerneck -14.1121 3.38638 -6.02695
upperneck 12.324 5.48937 2.14077
head 5.8157 2.55192 2.13809
rclavicle 1.96797e-014 -3.18055e-015
rhumerus -43.6915 2.99911 -78.0892
rradius 37.3381
rwrist 30.0728
rhand -29.7539 -13.0022
rfingers 7.12502
rthumb -3.07981 -42.9597
lclavicle 1.96797e-014 -3.18055e-015
lhumerus -18.7142 -21.8858 92.4849
lradius 38.6505
lwrist -17.3279
lhand -43.0492 4.91018
lfingers 7.12502
lthumb -15.9057 34.277
rfemur -29.1881 -20.5022 27.095
rtibia 42.5108
rfoot -6.27432 7.2516
rtoes -13.4109
lfemur 37.074 -1.21157 -11.3735
ltibia 3.18055e-015
lfoot -16.9504 -16.3353
ltoes -26.5403
257
root 5.13035 16.1753 5.81606 -5.77425 2.82897 -6.35834
lowerback 5.71947 -7.40263 -1.02209
upperback 3.5522 -10.0302 8.29644
thorax 2.25091 -5.26569 9.58131
lowerneck -14.014 3.41528 -5.80615
upperneck 12.3549 5.52771 1.80583
head 5.82444 2.55316 1.99893
rclavicle -1.55052e-014 3.02153e-014
rhumerus -43.5316 2.49377 -77.9266
rradius 37.3614
rwrist 29.655
rhand -30.2196 -13.314
rfingers 7.12502
rthumb -3.52957 -43.2645
lclavicle -1.55052e-014 3.02153e-014
lhumerus -19.1224 -21.4901 93.0095
lradius 38.1595
lwrist -16.909
lhand -42.9817 5.07736
lfingers 7.12502
lthumb -15.8407 34.4493
rfemur -28.8344 -20.4841 27.3714
rtibia 43.4201
rfoot -8.93972 6.39827
rtoes -12.758
lfemur 37.4823 -1.84827 -11.1128
ltibia 3.18055e-015
lfoot -16.4116 -16.2426
ltoes -27.5408
